<?xml version="1.0" standalone="no"?>
<!DOCTYPE svg PUBLIC "-//W3C//DTD SVG 20010904//EN"
 "http://www.w3.org/TR/2001/REC-SVG-20010904/DTD/svg10.dtd">
<svg version="1.0" xmlns="http://www.w3.org/2000/svg"
 width="98.000000pt" height="97.000000pt" viewBox="0 0 98.000000 97.000000"
 preserveAspectRatio="xMidYMid meet">

<g transform="translate(0.000000,97.000000) scale(0.100000,-0.100000)"
fill="#fffff" stroke="#fffff">
<path d="M400 894 c-25 -65 -2 -136 52 -165 29 -16 48 11 48 68 0 35 -6 50
-36 83 -20 22 -40 40 -45 40 -5 0 -14 -12 -19 -26z"/>
<path d="M599 862 c-34 -31 -42 -46 -46 -86 l-6 -49 29 7 c40 10 82 53 96 97
22 76 -10 90 -73 31z"/>
<path d="M245 769 c16 -76 63 -124 134 -135 46 -7 50 1 30 53 -20 54 -70 93
-138 108 l-33 7 7 -33z"/>
<path d="M679 750 c-14 -4 -37 -15 -51 -24 -27 -18 -60 -74 -52 -88 3 -4 29
-8 58 -8 62 0 107 25 144 80 l23 35 -23 6 c-31 9 -68 9 -99 -1z"/>
<path d="M504 690 c-44 -18 -76 -100 -39 -100 27 0 65 47 65 80 0 16 -1 30 -2
29 -2 0 -13 -4 -24 -9z"/>
<path d="M80 684 c0 -17 59 -78 95 -99 57 -34 145 -33 145 0 0 22 -52 77 -87
91 -31 14 -153 20 -153 8z"/>
<path d="M519 579 c-10 -27 -10 -36 2 -57 19 -33 30 -33 42 1 6 19 5 37 -3 58
-16 37 -24 37 -41 -2z"/>
<path d="M650 587 c-13 -7 -31 -25 -40 -40 -14 -26 -14 -29 4 -43 43 -31 124
-10 166 43 l22 28 -29 12 c-37 16 -92 16 -123 0z"/>
<path d="M365 569 c-13 -20 26 -49 67 -49 44 0 47 8 15 38 -24 23 -71 29 -82
11z"/>
<path d="M91 533 c-23 -15 -23 -17 -6 -30 25 -18 66 -16 94 3 l24 17 -24 13
c-33 18 -60 17 -88 -3z"/>
<path d="M240 512 c-21 -17 -21 -19 -5 -32 10 -8 34 -15 55 -15 21 0 45 7 55
15 16 13 16 15 -5 32 -12 10 -35 18 -50 18 -15 0 -38 -8 -50 -18z"/>
<path d="M801 507 c-34 -17 -36 -32 -6 -45 37 -17 69 -15 96 7 l23 18 -32 17
c-37 19 -49 20 -81 3z"/>
<path d="M405 474 c-54 -28 -61 -40 -32 -59 43 -28 98 -30 151 -6 54 24 53 34
-8 62 -50 23 -72 23 -111 3z"/>
<path d="M623 444 c-13 -9 -23 -22 -23 -28 0 -19 41 -54 72 -61 28 -7 89 8
121 30 17 12 16 15 -18 40 -45 35 -118 44 -152 19z"/>
<path d="M153 428 c-29 -14 -29 -22 3 -47 31 -24 110 -29 138 -8 17 13 16 15
-14 40 -34 29 -86 35 -127 15z"/>
<path d="M511 371 c-22 -14 5 -79 43 -102 33 -20 116 -26 116 -9 0 25 -30 78
-55 98 -28 22 -79 29 -104 13z"/>
<path d="M315 341 c-34 -20 -69 -67 -60 -80 11 -19 81 -22 123 -5 46 18 87 66
78 89 -8 22 -103 20 -141 -4z"/>
<path d="M453 160 l-30 -150 64 0 c57 0 64 2 59 18 -3 9 -17 75 -32 147 -14
72 -27 131 -29 133 -1 1 -16 -65 -32 -148z"/>
</g>
</svg>
